{
  "accessors": [
    {
      "bufferView": 2,
      "componentType": 5126,
      "count": 9356,
      "max": [
        0.9794806241989136,
        0.9850431084632874,
        0.9806526899337769
      ],
      "min": [
        -0.9794804453849792,
        -0.9850431084632874,
        -0.9798533916473389
      ],
      "type": "VEC3"
    },
    {
      "bufferView": 2,
      "byteOffset": 112272,
      "componentType": 5126,
      "count": 9356,
      "max": [
        0.9998412132263184,
        1.0,
        0.9999269247055054
      ],
      "min": [
        -0.9998412132263184,
        -1.0,
        -1.0
      ],
      "type": "VEC3"
    },
    {
      "bufferView": 1,
      "componentType": 5126,
      "count": 9356,
      "max": [
        0.9924242496490479,
        0.4723820686340332
      ],
      "min": [
        0.007575750816613436,
        0.0
      ],
      "type": "VEC2"
    },
    {
      "bufferView": 0,
      "componentType": 5125,
      "count": 26928,
      "type": "SCALAR"
    }
  ],
  "asset": {
    "extras": {
      "author": "MSerdar Tekin (https://sketchfab.com/teriologia)",
      "license": "CC-BY-4.0 (http://creativecommons.org/licenses/by/4.0/)",
      "source": "https://sketchfab.com/3d-models/bowling-ball-fc8f1162901a4e38b506fe1ab229f296",
      "title": "Bowling Ball"
    },
    "generator": "Sketchfab-12.65.0",
    "version": "2.0"
  },
  "bufferViews": [
    {
      "buffer": 0,
      "byteLength": 107712,
      "name": "floatBufferViews",
      "target": 34963
    },
    {
      "buffer": 0,
      "byteLength": 74848,
      "byteOffset": 107712,
      "byteStride": 8,
      "name": "floatBufferViews",
      "target": 34962
    },
    {
      "buffer": 0,
      "byteLength": 224544,
      "byteOffset": 182560,
      "byteStride": 12,
      "name": "floatBufferViews",
      "target": 34962
    }
  ],
  "buffers": [
    {
      "byteLength": 407104,
      "uri": "scene.bin"
    }
  ],
  "materials": [
    {
      "doubleSided": true,
      "name": "Material.001",
      "pbrMetallicRoughness": {
        "baseColorFactor": [
          0.00227288,
          0.0046769,
          0.0374103,
          1.0
        ],
        "metallicFactor": 0.0,
        "roughnessFactor": 0.15
      }
    }
  ],
  "meshes": [
    {
      "name": "Object_0",
      "primitives": [
        {
          "attributes": {
            "NORMAL": 1,
            "POSITION": 0,
            "TEXCOORD_0": 2
          },
          "indices": 3,
          "material": 0,
          "mode": 4
        }
      ]
    }
  ],
  "nodes": [
    {
      "children": [
        1
      ],
      "matrix": [
        1.0,
        0.0,
        0.0,
        0.0,
        0.0,
        2.220446049250313e-16,
        -1.0,
        0.0,
        0.0,
        1.0,
        2.220446049250313e-16,
        0.0,
        0.0,
        0.0,
        0.0,
        1.0
      ],
      "name": "Sketchfab_model"
    },
    {
      "children": [
        2
      ],
      "name": "root"
    },
    {
      "children": [
        3
      ],
      "matrix": [
        1.0,
        0.0,
        0.0,
        0.0,
        0.0,
        2.220446049250313e-16,
        1.0,
        0.0,
        0.0,
        -1.0,
        2.220446049250313e-16,
        0.0,
        0.0,
        0.0,
        0.0,
        1.0
      ],
      "name": "GLTF_SceneRootNode"
    },
    {
      "children": [
        4
      ],
      "matrix": [
        0.14000000059604645,
        0.0,
        0.0,
        0.0,
        0.0,
        0.14000000059604645,
        0.0,
        0.0,
        0.0,
        0.0,
        0.14000001549720764,
        0.0,
        0.0,
        0.0,
        0.0,
        1.0
      ],
      "name": "Icosphere_2"
    },
    {
      "mesh": 0,
      "name": "Object_4"
    }
  ],
  "scene": 0,
  "scenes": [
    {
      "name": "Sketchfab_Scene",
      "nodes": [
        0
      ]
    }
  ]
}
