{
	"asset":{
		"generator":"Khronos glTF Blender I/O v3.6.27",
		"version":"2.0"
	},
	"scene":0,
	"scenes":[
		{
			"name":"Scene",
			"nodes":[
				2
			]
		}
	],
	"nodes":[
		{
			"mesh":0,
			"name":"Bowling Pin_Pin Stripes_0"
		},
		{
			"mesh":1,
			"name":"Bowling Pin_Pin_0"
		},
		{
			"children":[
				0,
				1
			],
			"name":"Bowling Pin",
			"rotation":[
				-0.70710688829422,
				0,
				0,
				0.7071066498756409
			],
			"scale":[
				100,
				99.99999237060547,
				99.99999237060547
			],
			"translation":[
				0,
				-0.15000000596046448,
				0
			]
		}
	],
	"materials":[
		{
			"doubleSided":true,
			"name":"Pin_Stripes",
			"pbrMetallicRoughness":{
				"baseColorFactor":[
					0.800000011920929,
					0.00950102973729372,
					0.01133039966225624,
					1
				],
				"metallicFactor":0,
				"roughnessFactor":0.9466920495033264
			}
		},
		{
			"doubleSided":true,
			"name":"material",
			"pbrMetallicRoughness":{
				"baseColorFactor":[
					0.800000011920929,
					0.800000011920929,
					0.800000011920929,
					1
				],
				"metallicFactor":0,
				"roughnessFactor":0.7599999904632568
			}
		}
	],
	"meshes":[
		{
			"name":"Bowling Pin_Pin Stripes_0",
			"primitives":[
				{
					"attributes":{
						"POSITION":0,
						"NORMAL":1,
						"TEXCOORD_0":2
					},
					"indices":3,
					"material":0
				}
			]
		},
		{
			"name":"Bowling Pin_Pin_0",
			"primitives":[
				{
					"attributes":{
						"POSITION":4,
						"NORMAL":5,
						"TEXCOORD_0":6
					},
					"indices":7,
					"material":1
				}
			]
		}
	],
	"accessors":[
		{
			"bufferView":0,
			"componentType":5126,
			"count":168,
			"max":[
				0.029416043311357498,
				0.029416048899292946,
				0.29681944847106934
			],
			"min":[
				-0.029416052624583244,
				-0.02941604144871235,
				0.2364831417798996
			],
			"type":"VEC3"
		},
		{
			"bufferView":1,
			"componentType":5126,
			"count":168,
			"type":"VEC3"
		},
		{
			"bufferView":2,
			"componentType":5126,
			"count":168,
			"type":"VEC2"
		},
		{
			"bufferView":3,
			"componentType":5123,
			"count":720,
			"type":"SCALAR"
		},
		{
			"bufferView":4,
			"componentType":5126,
			"count":1346,
			"max":[
				0.06049998849630356,
				0.06049999222159386,
				0.3800000250339508
			],
			"min":[
				-0.060499999672174454,
				-0.06049998477101326,
				-9.654020686866716e-06
			],
			"type":"VEC3"
		},
		{
			"bufferView":5,
			"componentType":5126,
			"count":1346,
			"type":"VEC3"
		},
		{
			"bufferView":6,
			"componentType":5126,
			"count":1346,
			"type":"VEC2"
		},
		{
			"bufferView":7,
			"componentType":5123,
			"count":7776,
			"type":"SCALAR"
		}
	],
	"bufferViews":[
		{
			"buffer":0,
			"byteLength":2016,
			"byteOffset":0,
			"target":34962
		},
		{
			"buffer":0,
			"byteLength":2016,
			"byteOffset":2016,
			"target":34962
		},
		{
			"buffer":0,
			"byteLength":1344,
			"byteOffset":4032,
			"target":34962
		},
		{
			"buffer":0,
			"byteLength":1440,
			"byteOffset":5376,
			"target":34963
		},
		{
			"buffer":0,
			"byteLength":16152,
			"byteOffset":6816,
			"target":34962
		},
		{
			"buffer":0,
			"byteLength":16152,
			"byteOffset":22968,
			"target":34962
		},
		{
			"buffer":0,
			"byteLength":10768,
			"byteOffset":39120,
			"target":34962
		},
		{
			"buffer":0,
			"byteLength":15552,
			"byteOffset":49888,
			"target":34963
		}
	],
	"buffers":[
		{
			"byteLength":65440,
			"uri":"data:application/octet-stream;base64,"
		}
	]
}
